<?xml version="1.0" encoding="UTF-8"?>
<svg width="47px" height="26px" viewBox="0 0 47 26" version="1.1" xmlns="http://www.w3.org/2000/svg" xmlns:xlink="http://www.w3.org/1999/xlink">
    <title>Flare Logo</title>
    <desc>Created with Sketch.</desc>
    <defs>
        <linearGradient x1="0%" y1="0%" x2="0%" y2="100%" id="linearGradient-1">
            <stop stop-color="#FF5678" offset="0%"></stop>
            <stop stop-color="#AF32CF" offset="100%"></stop>
        </linearGradient>
    </defs>
    <g id="Flare-UI" stroke="none" stroke-width="1" fill="none" fill-rule="evenodd">
        <g id="Flare-Logo" transform="translate(23.500000, 13.000000) rotate(-270.000000) translate(-23.500000, -13.000000) translate(10.500000, -10.500000)" fill="url(#linearGradient-1)">
            <path d="M25.3644123,38.5503399 C25.0253706,39.3260029 24.4446628,39.9887119 23.6872038,40.4260311 L18,43.7095397 L18,32.5402844 L22.0161181,34.843488 C23.5232708,35.707825 24.6819084,37.01678 25.3644123,38.5503399 Z" id="Combined-Shape"></path>
            <path d="M17.0600004,44.2522487 L14.8649289,45.5195738 C13.6185265,46.2391846 12.0828953,46.2391846 10.8364929,45.5195738 L9,44.4592742 L9,18.0379147 L13.0176775,20.3411183 C15.5183921,21.7746966 17.0600004,24.4313792 17.0600004,27.3073297 L17.0600004,44.2522487 Z" id="Combined-Shape"></path>
            <path d="M8.05687204,43.914759 L2.01421801,40.4260311 C0.767815568,39.7064203 3.04164138e-14,38.3765247 3.024016e-14,36.9373031 L1.42108547e-14,0.312796209 L4.01611806,2.61599984 C6.5158621,4.0495781 8.05687204,6.70626074 8.05687204,9.5822112 L8.05687204,43.914759 Z" id="Combined-Shape"></path>
        </g>
    </g>
</svg>